<?xml version="1.0" encoding="UTF-8"?>
<svg width="31px" height="28px" viewBox="0 0 31 28" version="1.1" xmlns="http://www.w3.org/2000/svg" xmlns:xlink="http://www.w3.org/1999/xlink">
    <!-- Generator: sketchtool 58 (101010) - https://sketch.com -->
    <title>AE9B0BAF-3F08-4066-BD5E-5AD8C12042EA</title>
    <desc>Created with sketchtool.</desc>
    <g id="Web-[WIP]" stroke="none" stroke-width="1" fill="none" fill-rule="evenodd">
        <g id="Confirm-Payment-:-แนบหลักฐาน" transform="translate(-659.000000, -581.000000)" fill="#FA6400">
            <g id="Modal/Delete">
                <g id="dialog/medium" transform="translate(531.000000, 200.000000)">
                    <g id="Upload-Logo" transform="translate(116.000000, 374.000000)">
                        <g id="icon-upload-logo" transform="translate(12.000000, 7.000000)">
                            <circle id="Oval" cx="12" cy="9" r="2"></circle>
                            <path d="M29.1660305,17.0775862 C28.1603053,16.112069 26.8883588,15.4784483 25.4980916,15.2974138 L25.4980916,4.25431034 C25.4980916,3.07758621 25.0248092,2.02155172 24.2853053,1.23706897 C23.5162214,0.452586207 22.480916,0 21.3272901,0 L4.17080153,0 C3.01717557,0 1.98187023,0.482758621 1.21278626,1.23706897 C0.44370229,2.02155172 0,3.07758621 0,4.25431034 L0,18.1637931 L0,19.4612069 L0,22.2672414 C0,23.4439655 0.473282443,24.5 1.21278626,25.2844828 C1.98187023,26.0689655 3.01717557,26.5215517 4.17080153,26.5215517 L20.7652672,26.5215517 C21.8597328,27.4267241 23.2204198,28 24.7290076,28 C26.4742366,28 28.0419847,27.2758621 29.1660305,26.1293103 C30.2900763,24.9827586 31,23.3836207 31,21.6034483 C31,19.8232759 30.2900763,18.2241379 29.1660305,17.0775862 Z M1.56774809,4.25431034 C1.56774809,3.53017241 1.86354962,2.86637931 2.33683206,2.4137931 C2.8101145,1.93103448 3.46087786,1.62931034 4.17080153,1.62931034 L21.3272901,1.62931034 C22.0372137,1.62931034 22.6879771,1.93103448 23.1612595,2.4137931 C23.634542,2.89655172 23.9303435,3.56034483 23.9303435,4.28448276 L23.9303435,13.6982759 L19.5524809,9.23275862 C19.2566794,8.93103448 18.7538168,8.90086207 18.4284351,9.23275862 L11.8320611,15.9913793 L7.36545802,11.4051724 C7.06965649,11.1034483 6.56679389,11.0732759 6.24141221,11.4051724 L1.56774809,16.2327586 L1.56774809,4.25431034 Z M4.14122137,24.9827586 L4.14122137,24.9224138 C3.43129771,24.9224138 2.78053435,24.6206897 2.30725191,24.137931 C1.86354962,23.6551724 1.56774809,22.9913793 1.56774809,22.2672414 L1.56774809,19.4612069 L1.56774809,18.5258621 L6.80343511,13.1551724 L11.2700382,17.7112069 C11.5658397,18.012931 12.0687023,18.012931 12.394084,17.7112069 L18.990458,10.9525862 L23.3091603,15.387931 C23.2204198,15.4181034 23.1316794,15.4482759 23.0429389,15.4784483 C22.9246183,15.5086207 22.8062977,15.5387931 22.6583969,15.5991379 C22.5400763,15.6293103 22.4217557,15.6896552 22.3034351,15.7198276 C22.2146947,15.75 22.1555344,15.7801724 22.0667939,15.8405172 C21.9484733,15.9008621 21.8597328,15.9310345 21.7709924,15.9913793 C21.6230916,16.0818966 21.4751908,16.1724138 21.3272901,16.262931 C21.2385496,16.3232759 21.1793893,16.3534483 21.0906489,16.4137931 C21.0314885,16.4439655 21.0019084,16.4741379 20.9427481,16.5043103 C20.6765267,16.6853448 20.4398855,16.8965517 20.2328244,17.137931 C19.1087786,18.2844828 18.398855,19.8836207 18.398855,21.6637931 C18.398855,22.1163793 18.4580153,22.5387931 18.5467557,22.9913793 C18.5763359,23.112069 18.605916,23.2025862 18.6354962,23.3232759 C18.7242366,23.625 18.8129771,23.9267241 18.9312977,24.2284483 L18.9312977,24.2586207 C19.0496183,24.5 19.1679389,24.7715517 19.3158397,24.9827586 L4.14122137,24.9827586 L4.14122137,24.9827586 Z M28.0124046,24.9827586 C27.1545802,25.8577586 26.0009542,26.3706897 24.6994275,26.3706897 C23.4570611,26.3706897 22.3034351,25.8577586 21.4751908,25.0431034 C21.3568702,24.9224138 21.2385496,24.7715517 21.120229,24.6508621 C21.0314885,24.5603448 20.9427481,24.4396552 20.8540076,24.3491379 C20.735687,24.1982759 20.6469466,24.0172414 20.5582061,23.8362069 C20.4990458,23.7155172 20.4398855,23.625 20.3807252,23.5043103 C20.3215649,23.3534483 20.2624046,23.1724138 20.2328244,22.9913793 C20.2032443,22.8706897 20.144084,22.7198276 20.1145038,22.5991379 C20.0553435,22.2974138 20.0257634,21.9655172 20.0257634,21.6336207 C20.0257634,20.3060345 20.5582061,19.1293103 21.3864504,18.2543103 C22.2146947,17.3793103 23.3979008,16.8663793 24.6994275,16.8663793 C26.0009542,16.8663793 27.1545802,17.4094828 28.0124046,18.2543103 C28.870229,19.1293103 29.3730916,20.3060345 29.3730916,21.6336207 C29.3730916,22.9310345 28.8406489,24.1077586 28.0124046,24.9827586 Z" id="icon-upload-photo" fill-rule="nonzero"></path>
                            <path d="M25.0367232,18.2445415 C24.980226,18.1834061 24.8954802,18.1222707 24.7824859,18.0611354 C24.6977401,18.0305677 24.6129944,18 24.5282486,18 C24.5,18 24.5,18 24.5,18 C24.4717514,18 24.4717514,18 24.4717514,18 C24.3870056,18 24.3022599,18.0305677 24.2175141,18.0611354 C24.1327684,18.0917031 24.0480226,18.1528384 23.9632768,18.2445415 L22.2118644,20.139738 C21.9293785,20.4454148 21.9293785,20.9650655 22.2118644,21.30131 C22.4943503,21.6069869 22.9745763,21.6069869 23.2853107,21.30131 L23.7372881,20.8122271 L23.7372881,24.1746725 C23.7372881,24.6331878 24.0762712,25 24.5,25 C24.9237288,25 25.2627119,24.6331878 25.2627119,24.1746725 L25.2627119,20.8122271 L25.7146893,21.30131 C25.9971751,21.6069869 26.4774011,21.6069869 26.7881356,21.30131 C27.0706215,20.9956332 27.0706215,20.4759825 26.7881356,20.139738 L25.0367232,18.2445415 Z" id="Path"></path>
                        </g>
                    </g>
                </g>
            </g>
        </g>
    </g>
</svg>