<?xml version="1.0" encoding="UTF-8"?>
<svg width="19px" height="13px" viewBox="0 0 19 13" version="1.1" xmlns="http://www.w3.org/2000/svg" xmlns:xlink="http://www.w3.org/1999/xlink">
    <!-- Generator: sketchtool 58 (101010) - https://sketch.com -->
    <title>05AB0AC8-DDF4-4644-849A-306A7C552FEF</title>
    <desc>Created with sketchtool.</desc>
    <g id="Web-[WIP]" stroke="none" stroke-width="1" fill="none" fill-rule="evenodd">
        <g id="QR-Code-Method" transform="translate(-990.000000, -675.000000)" fill="#FA6400" fill-rule="nonzero">
            <g id="Content" transform="translate(261.000000, 163.000000)">
                <g id="Form" transform="translate(319.000000, 0.000000)">
                    <g id="QR-Code" transform="translate(57.000000, 127.000000)">
                        <g id="Info" transform="translate(0.000000, 42.000000)">
                            <g id="Condition" transform="translate(13.000000, 231.000000)">
                                <g id="Upload" transform="translate(330.000000, 103.000000)">
                                    <path d="M25.4499543,14.9460975 C25.5620794,14.6535414 25.6249645,14.333615 25.6249645,14.0000167 C25.6249645,12.5508014 24.4491861,11.3750229 22.9999708,11.3750229 C22.4612949,11.3750229 21.9581871,11.5390851 21.5425577,11.817996 C20.7851323,10.5054991 19.3714585,9.62502712 17.7499833,9.62502712 C15.3327909,9.62502712 13.3749937,11.5828243 13.3749937,14.0000167 L13.3804678,14.2214899 L13.3804678,14.2214899 C11.8492215,14.7601658 10.75,16.2203292 10.75,17.9375073 C10.75,20.1113302 12.5136677,21.8749979 14.6874906,21.8749979 L24.7499666,21.8749979 C26.6831705,21.8749979 28.2499583,20.3082101 28.2499583,18.3750063 C28.2499583,16.6824215 27.0468361,15.2687743 25.4499543,14.9460975 Z M21.5070163,16.6250104 L19.7187286,16.6250104 L19.7187286,19.6875031 C19.7187286,19.9281222 19.5218487,20.1250021 19.2812297,20.1250021 L17.9687328,20.1250021 C17.7281137,20.1250021 17.5312338,19.9281222 17.5312338,19.6875031 L17.5312338,16.6250104 L15.7429462,16.6250104 C15.3519368,16.6250104 15.1578073,16.1546937 15.4339679,15.8785332 L18.3160029,12.9964981 C18.4855391,12.8269619 18.7644233,12.8269619 18.9339595,12.9964981 L21.8159946,15.8785332 C22.0921551,16.1546937 21.8952752,16.6250104 21.5070163,16.6250104 Z" id="icon-upload-file"></path>
                                </g>
                            </g>
                        </g>
                    </g>
                </g>
            </g>
        </g>
    </g>
</svg>