<?xml version="1.0" encoding="UTF-8"?>
<svg width="22px" height="16px" viewBox="0 0 22 16" version="1.1" xmlns="http://www.w3.org/2000/svg" xmlns:xlink="http://www.w3.org/1999/xlink">
    <!-- Generator: Sketch 56.3 (81716) - https://sketch.com -->
    <title>icon-news</title>
    <desc>Created with Sketch.</desc>
    <g id="Lists-All-News" stroke="none" stroke-width="1" fill="none" fill-rule="evenodd">
        <g id="News-List" transform="translate(-15.000000, -96.000000)" fill="#017840" fill-rule="nonzero">
            <g id="Sidebar" transform="translate(0.000000, 61.000000)">
                <g id="Sidebar/White" transform="translate(0.000000, 30.000000)">
                    <g id="list">
                        <g id="discount" transform="translate(15.000000, 5.000000)">
                            <path d="M21.0833333,0.750026822 C21.5895962,0.750026822 22,1.1604306 22,1.66669349 L22,14.5000268 C22,15.0062897 21.5895962,15.4166935 21.0833333,15.4166935 L2.13888889,15.4166935 C0.957621257,15.4166935 0,14.4590722 0,13.2778046 L0,2.88891571 C0,2.38265283 0.410403781,1.97224904 0.916666667,1.97224904 L2.54955377,1.97224904 C2.80184597,1.26095212 3.48110284,0.750026822 4.27777778,0.750026822 L21.0833333,0.750026822 Z M1.83333333,13.2778046 C1.83333333,13.4462854 1.97040812,13.5833602 2.13888889,13.5833602 C2.30736966,13.5833602 2.44444444,13.4462854 2.44444444,13.2778046 L2.44444444,3.80558238 L1.83333333,3.80558238 L1.83333333,13.2778046 Z M20.1666667,13.5833602 L20.1666667,2.58336016 L4.27777778,2.58336016 L4.27777778,13.2778046 C4.27777778,13.3815711 4.26998223,13.48351 4.25569661,13.5833602 L20.1666667,13.5833602 Z M6.56944444,9.00002682 C6.31633165,9.00002682 6.11111111,8.79480628 6.11111111,8.54169349 L6.11111111,4.87502682 C6.11111111,4.62191403 6.31633165,4.41669349 6.56944444,4.41669349 L11.7638889,4.41669349 C12.0170017,4.41669349 12.2222222,4.62191403 12.2222222,4.87502682 L12.2222222,8.54169349 C12.2222222,8.79480628 12.0170017,9.00002682 11.7638889,9.00002682 L6.56944444,9.00002682 Z M7.63888889,5.94447127 L7.63888889,7.47224904 L10.6944444,7.47224904 L10.6944444,5.94447127 L7.63888889,5.94447127 Z M6.11111111,11.2916935 L6.11111111,10.3750268 C6.11111111,10.121914 6.31633165,9.91669349 6.56944444,9.91669349 L11.7638889,9.91669349 C12.0170017,9.91669349 12.2222222,10.121914 12.2222222,10.3750268 L12.2222222,11.2916935 C12.2222222,11.5448063 12.0170017,11.7500268 11.7638889,11.7500268 L6.56944444,11.7500268 C6.31633165,11.7500268 6.11111111,11.5448063 6.11111111,11.2916935 Z M13.4444444,11.2916935 L13.4444444,10.3750268 C13.4444444,10.121914 13.649665,9.91669349 13.9027778,9.91669349 L17.875,9.91669349 C18.1281128,9.91669349 18.3333333,10.121914 18.3333333,10.3750268 L18.3333333,11.2916935 C18.3333333,11.5448063 18.1281128,11.7500268 17.875,11.7500268 L13.9027778,11.7500268 C13.649665,11.7500268 13.4444444,11.5448063 13.4444444,11.2916935 Z M13.4444444,5.79169349 L13.4444444,4.87502682 C13.4444444,4.62191403 13.649665,4.41669349 13.9027778,4.41669349 L17.875,4.41669349 C18.1281128,4.41669349 18.3333333,4.62191403 18.3333333,4.87502682 L18.3333333,5.79169349 C18.3333333,6.04480628 18.1281128,6.25002682 17.875,6.25002682 L13.9027778,6.25002682 C13.649665,6.25002682 13.4444444,6.04480628 13.4444444,5.79169349 Z M13.4444444,8.54169349 L13.4444444,7.62502682 C13.4444444,7.37191403 13.649665,7.16669349 13.9027778,7.16669349 L17.875,7.16669349 C18.1281128,7.16669349 18.3333333,7.37191403 18.3333333,7.62502682 L18.3333333,8.54169349 C18.3333333,8.79480628 18.1281128,9.00002682 17.875,9.00002682 L13.9027778,9.00002682 C13.649665,9.00002682 13.4444444,8.79480628 13.4444444,8.54169349 Z" id="icon-news"></path>
                        </g>
                    </g>
                </g>
            </g>
        </g>
    </g>
</svg>