<?xml version="1.0" encoding="UTF-8"?>
<svg width="108px" height="100px" viewBox="0 0 108 100" version="1.1" xmlns="http://www.w3.org/2000/svg" xmlns:xlink="http://www.w3.org/1999/xlink">
    <!-- Generator: Sketch 53 (72520) - https://sketchapp.com -->
    <title>Group</title>
    <desc>Created with Sketch.</desc>
    <g id="Page-1" stroke="none" stroke-width="1" fill="none" fill-rule="evenodd">
        <g id="Group">
            <rect id="Rectangle" fill="#FFFFFF" x="0" y="0" width="108" height="100"></rect>
            <g id="icon-upload-photo" transform="translate(35.000000, 23.000000)" fill="#C4CDD5" fill-rule="nonzero">
                <circle id="Oval" cx="14.2633931" cy="10.9687502" r="2.57142857"></circle>
                <path d="M35.370537,20.4330349 C34.15625,19.2901778 32.6205369,18.5401778 30.9419654,18.3258921 L30.9419654,5.25446408 C30.9419654,3.86160699 30.3705368,2.61160704 29.4776796,1.68303565 C28.5491082,0.754464263 27.2991081,0.21875 25.9062509,0.21875 L5.19196447,0.21875 C3.79910727,0.21875 2.54910723,0.790178548 1.62053577,1.68303565 C0.691964305,2.61160704 0.15625,3.86160699 0.15625,5.25446408 L0.15625,21.71875 L0.15625,23.2544633 L0.15625,26.5758918 C0.15625,27.9687488 0.727678592,29.21875 1.62053577,30.1473202 C2.54910723,31.0758916 3.79910727,31.6116058 5.19196447,31.6116058 L25.2276795,31.6116058 C26.5491081,32.6830344 28.1919653,33.3616058 30.0133939,33.3616058 C32.1205369,33.3616058 34.0133941,32.5044629 35.370537,31.1473201 C36.7276799,29.7901773 37.5848228,27.8973203 37.5848228,25.7901775 C37.5848228,23.6830347 36.7276799,21.7901777 35.370537,20.4330349 Z M2.04910707,5.25446415 C2.04910707,4.39732133 2.40624994,3.61160708 2.97767853,3.07589281 C3.54910707,2.50446427 4.33482144,2.14732143 5.19196434,2.14732143 L25.9062509,2.14732143 C26.7633938,2.14732143 27.5491071,2.50446427 28.1205367,3.07589281 C28.6919653,3.64732143 29.0491071,4.43303561 29.0491071,5.29017844 L29.0491071,16.4330351 L23.7633936,11.1473214 C23.4062508,10.7901782 22.7991079,10.7544639 22.4062507,11.1473214 L14.4419647,19.1473214 L9.04910707,13.7187495 C8.69196447,13.3616067 8.08482159,13.3258924 7.69196443,13.7187495 L2.04910707,19.433035 L2.04910707,5.25446415 Z M5.15624978,29.7901789 L5.15624978,29.7187503 C4.29910697,29.7187503 3.51339272,29.3616075 2.94196417,28.7901789 C2.40624991,28.2187503 2.04910707,27.433036 2.04910707,26.5758932 L2.04910707,23.2544646 L2.04910707,22.1473217 L8.37053535,15.7901788 L13.7633922,21.1830359 C14.1205351,21.5401788 14.7276779,21.5401788 15.120535,21.1830359 L23.0848204,13.1830359 L28.2991059,18.433036 C28.191963,18.4687502 28.0848202,18.5044645 27.9776773,18.5401788 C27.8348202,18.5758931 27.691963,18.6116074 27.5133916,18.6830359 C27.3705345,18.7187502 27.2276774,18.7901788 27.0848202,18.8258931 C26.9776774,18.8616074 26.9062488,18.8973217 26.7991059,18.9687502 C26.6562488,19.0401788 26.5491071,19.0758931 26.4419631,19.1473217 C26.2633917,19.2544645 26.0848203,19.3616074 25.9062488,19.4687502 C25.799106,19.5401788 25.7276774,19.5758931 25.6205346,19.6473217 C25.5491071,19.6830359 25.5133917,19.7187502 25.4419631,19.7544645 C25.1205346,19.9687502 24.8348203,20.2187502 24.5848203,20.5044645 C23.2276775,21.8616074 22.3705347,23.7544646 22.3705347,25.8616074 C22.3705347,26.3973217 22.4419633,26.8973217 22.5491071,27.433036 C22.5848204,27.5758932 22.6205347,27.6830359 22.656249,27.8258932 C22.7633918,28.1830359 22.8705347,28.5401789 23.0133918,28.8973217 L23.0133918,28.933036 C23.156249,29.2187503 23.2991061,29.5401789 23.4776775,29.7901789 L5.15624978,29.7901789 L5.15624978,29.7901789 Z M33.9776789,29.7901778 C32.9419647,30.8258921 31.5491076,31.4330349 29.977679,31.4330349 C28.4776791,31.4330349 27.0848219,30.8258921 26.084822,29.8616064 C25.9419648,29.7187492 25.7991077,29.5401778 25.6562505,29.3973207 C25.5491077,29.2901778 25.4419648,29.1473207 25.334822,29.0401778 C25.1919648,28.8616064 25.084822,28.6473207 24.9776791,28.433035 C24.9062506,28.2901778 24.834822,28.1830352 24.7633934,28.0401778 C24.6919648,27.8616064 24.6205363,27.6473207 24.584822,27.433035 C24.5491077,27.2901779 24.4776791,27.1116064 24.4419649,26.9687493 C24.3705363,26.6116065 24.334822,26.2187493 24.334822,25.8258922 C24.334822,24.2544637 24.9776791,22.8616066 25.9776791,21.8258923 C26.9776791,20.790178 28.4062505,20.1830352 29.977679,20.1830352 C31.5491076,20.1830352 32.9419647,20.8258923 33.9776789,21.8258923 C35.0133932,22.8616066 35.6205361,24.2544637 35.6205361,25.8258922 C35.6205361,27.3616064 34.9776789,28.7544635 33.9776789,29.7901778 Z" id="Shape"></path>
                <path d="M30.6562494,21.9687495 C30.5848208,21.897321 30.4776779,21.8258924 30.3348208,21.7544638 C30.2276779,21.7187495 30.1205351,21.6830353 30.0133922,21.6830353 C29.9776779,21.6830353 29.9776779,21.6830353 29.9776779,21.6830353 C29.9419636,21.6830353 29.9419636,21.6830353 29.9419636,21.6830353 C29.8348208,21.6830353 29.7276779,21.7187495 29.620535,21.7544638 C29.5133922,21.7901781 29.4062493,21.8616067 29.2991065,21.9687495 L27.0848207,24.1830353 C26.7276778,24.5401782 26.7276778,25.147321 27.0848207,25.5401782 C27.4419636,25.8973211 28.0491064,25.8973211 28.4419636,25.5401782 L29.0133922,24.9687496 L29.0133922,28.8973211 C29.0133922,29.4330354 29.4419636,29.8616069 29.9776779,29.8616069 C30.5133922,29.8616069 30.9419636,29.4330354 30.9419636,28.8973211 L30.9419636,24.9687496 L31.5133922,25.5401782 C31.8705351,25.8973211 32.477678,25.8973211 32.8705351,25.5401782 C33.227678,25.1830353 33.227678,24.5758925 32.8705351,24.1830353 L30.6562494,21.9687495 Z" id="Path"></path>
            </g>
            <text id="Upload-photo" font-family="Thonburi-Bold, Thonburi" font-size="14" font-weight="bold" fill="#C4CDD5">
                <tspan x="9.44296875" y="75">Upload photo</tspan>
            </text>
        </g>
    </g>
</svg>