<?xml version="1.0" encoding="UTF-8"?>
<svg width="16px" height="16px" viewBox="0 0 16 16" version="1.1" xmlns="http://www.w3.org/2000/svg" xmlns:xlink="http://www.w3.org/1999/xlink">
    <!-- Generator: Sketch 56.3 (81716) - https://sketch.com -->
    <title>icon-user</title>
    <desc>Created with Sketch.</desc>
    <g id="Lists-All-News" stroke="none" stroke-width="1" fill="none" fill-rule="evenodd">
        <g id="Login" transform="translate(-586.000000, -488.000000)" fill="#027840" fill-rule="nonzero">
            <g id="Wrap" transform="translate(479.000000, 298.000000)">
                <g id="feild" transform="translate(99.000000, 178.000000)">
                    <path d="M15.7499887,15.2500256 C17.4062276,15.2500256 18.7499744,16.5937724 18.7499744,18.2500256 C18.7499744,19.9062645 17.4062276,21.2500113 15.7499887,21.2500113 C14.0937355,21.2500113 12.7499887,19.9062645 12.7499887,18.2500256 C12.7499887,16.5937724 14.0937355,15.2500256 15.7499887,15.2500256 Z M15.7499851,19.7500221 C16.5781045,19.7500221 17.2499851,19.0781415 17.2499851,18.2500221 C17.2499851,17.4218955 16.5781045,16.7500221 15.7499851,16.7500221 C14.9218585,16.7500221 14.2499851,17.4218955 14.2499851,18.2500221 C14.2499851,19.0781415 14.9218585,19.7500221 15.7499851,19.7500221 Z M15.7499815,12.2500328 C20.0312213,12.2500328 23.499963,15.7187745 23.499963,20.0000143 C23.499963,24.2812541 20.0312213,27.7499958 15.7499815,27.7499958 C11.4687417,27.7499958 8,24.2812541 8,20.0000143 C8,15.7187745 11.4687417,12.2500328 15.7499815,12.2500328 Z M15.7499815,26.2499994 C17.3031089,26.2499994 18.7218372,25.6781319 19.8155846,24.7374908 C19.349979,24.0187425 18.5531059,23.5343687 17.640602,23.5031187 C16.9906097,23.7062433 16.3718672,23.8031363 15.7499815,23.8031363 C15.1280958,23.8031363 14.5093534,23.7031305 13.859361,23.5031187 C12.9468571,23.5312559 12.149984,24.0187425 11.6843784,24.7374908 C12.7781258,25.6781319 14.1968541,26.2499994 15.7499815,26.2499994 Z M20.8343505,23.6218929 C21.5655805,22.6000142 21.9999666,21.3500172 21.9999666,20.0000143 C21.9999666,16.5531536 19.1968422,13.7500292 15.7499815,13.7500292 C12.3031208,13.7500292 9.49999642,16.5531536 9.49999642,20.0000143 C9.49999642,21.3500172 9.9343826,22.6000142 10.6656125,23.6218929 C11.4312357,22.640633 12.609364,22.0000095 13.949998,22.0000095 C14.2687228,22.0000095 14.7656089,22.2999966 15.7499815,22.2999966 C16.737467,22.2999966 17.2312402,22.0000095 17.549965,22.0000095 C18.8937118,22.0000095 20.0718401,22.640633 20.8343505,23.6218929 Z" id="icon-user"></path>
                </g>
            </g>
        </g>
    </g>
</svg>