<?xml version="1.0" encoding="UTF-8"?>
<svg width="14px" height="16px" viewBox="0 0 14 16" version="1.1" xmlns="http://www.w3.org/2000/svg" xmlns:xlink="http://www.w3.org/1999/xlink">
    <!-- Generator: Sketch 56.3 (81716) - https://sketch.com -->
    <title>icon-password</title>
    <desc>Created with Sketch.</desc>
    <g id="Lists-All-News" stroke="none" stroke-width="1" fill="none" fill-rule="evenodd">
        <g id="Login" transform="translate(-586.000000, -565.000000)" fill="#027840" fill-rule="nonzero">
            <g id="Wrap" transform="translate(479.000000, 298.000000)">
                <g id="feild" transform="translate(99.000000, 255.000000)">
                    <path d="M14.9999833,24.8750027 C14.5156095,24.8750027 14.1249854,24.4843786 14.1249854,24.0000048 L14.1249854,22.0000095 C14.1249854,21.5156357 14.5156095,21.1250116 14.9999833,21.1250116 C15.4843572,21.1250116 15.8749812,21.5156357 15.8749812,22.0000095 L15.8749812,24.0000048 C15.8749812,24.4843786 15.4843572,24.8750027 14.9999833,24.8750027 Z M21.9999666,19.5000189 L21.9999666,26.5000045 C21.9999666,27.3281218 21.3280932,28.0000045 20.4999702,28.0000045 L9.5,28.0000045 C8.6718734,28.0000045 8,27.3281218 8,26.5000045 L8,19.5000189 C8,18.6718925 8.6718734,18.0000189 9.5,18.0000189 L10.5,18.0000189 L10.5,16.5000189 C10.5,14.0156536 12.5249831,11.9937773 15.0124955,12.0000045 C17.4999774,12.0062895 19.4999726,14.0562724 19.4999726,16.5437848 L19.4999726,18.0000189 L20.4999702,18.0000189 C21.3280932,18.0000189 21.9999666,18.6718925 21.9999666,19.5000189 Z M11.9999905,18.0000191 L17.9999762,18.0000191 L17.9999762,16.5000298 C17.9999762,14.8468894 16.6531166,13.5000298 14.9999905,13.5000298 C13.34685,13.5000298 11.9999905,14.8468894 11.9999905,16.5000298 L11.9999905,18.0000191 Z M20.4999702,19.5000155 L9.49999642,19.5000155 L9.49999642,26.4999988 L20.4999702,26.4999988 L20.4999702,19.5000155 Z" id="icon-password"></path>
                </g>
            </g>
        </g>
    </g>
</svg>