<?xml version="1.0" encoding="UTF-8"?>
<svg width="39px" height="44px" viewBox="0 0 39 44" version="1.1" xmlns="http://www.w3.org/2000/svg" xmlns:xlink="http://www.w3.org/1999/xlink">
    <!-- Generator: sketchtool 58 (101010) - https://sketch.com -->
    <title>43CE598F-275A-4396-A7F1-4F7F9EE2A0D2</title>
    <desc>Created with sketchtool.</desc>
    <g id="Web-[WIP]" stroke="none" stroke-width="1" fill="none" fill-rule="evenodd" opacity="0.200000003">
        <g id="Confirm-Payment-:-แนบหลักฐาน" transform="translate(-699.000000, -411.000000)" fill="#494E52" fill-rule="nonzero">
            <g id="Modal/Delete">
                <g id="dialog/medium" transform="translate(531.000000, 200.000000)">
                    <g id="Group-5" transform="translate(128.000000, 211.000000)">
                        <path d="M69.5624295,20.6249508 L48.9374787,20.6249508 C48.559321,20.6249508 48.2499803,20.9342915 48.2499803,21.3124492 L48.2499803,22.6874459 C48.2499803,23.0656036 48.559321,23.3749443 48.9374787,23.3749443 L69.5624295,23.3749443 C69.9405872,23.3749443 70.2499279,23.0656036 70.2499279,22.6874459 L70.2499279,21.3124492 C70.2499279,20.9342915 69.9405872,20.6249508 69.5624295,20.6249508 Z M69.5624295,28.8749312 L48.9374787,28.8749312 C48.559321,28.8749312 48.2499803,29.1842718 48.2499803,29.5624295 L48.2499803,30.9374262 C48.2499803,31.3155839 48.559321,31.6249246 48.9374787,31.6249246 L69.5624295,31.6249246 C69.9405872,31.6249246 70.2499279,31.3155839 70.2499279,30.9374262 L70.2499279,29.5624295 C70.2499279,29.1842718 69.9405872,28.8749312 69.5624295,28.8749312 Z M75.9303495,0 C75.43193,0 74.9163062,0.154670347 74.4436511,0.489859367 L70.7053788,3.17967992 L67.3882327,0.7906399 C66.6663259,0.275016129 65.8241572,0.00856016026 64.9733444,0.00856016026 C64.1311757,0.00856016026 63.289007,0.266372046 62.5671001,0.7906399 L59.2499541,3.17967992 L55.9328081,0.7906399 C55.2109012,0.275016129 54.3600884,0.00856016026 53.5179197,0.00856016026 C52.675751,0.00856016026 51.8335823,0.266372046 51.1116755,0.7906399 L47.7945295,3.17967992 L44.0562571,0.489859367 C43.5921622,0.154670347 43.0765384,0 42.5695587,0 C41.2375306,0.00856016026 40,1.05701195 40,2.56955869 L40,41.4389805 C40,42.9256789 41.2288865,43.9998951 42.5695587,43.9998951 C43.0679782,43.9998951 43.583602,43.8452247 44.0562571,43.5100357 L47.7945295,40.8202152 L51.1116755,43.2092552 C51.8335823,43.724879 52.675751,43.9913349 53.5265638,43.9913349 C54.3687325,43.9913349 55.2109012,43.7335231 55.9328081,43.2092552 L59.2499541,40.8202152 L62.5671001,43.2092552 C63.289007,43.724879 64.1398198,43.9913349 64.9819885,43.9913349 C65.8241572,43.9913349 66.6663259,43.7335231 67.3882327,43.2092552 L70.7053788,40.8202152 L74.4436511,43.5100357 C74.9077461,43.8452247 75.4233698,43.9998951 75.9303495,43.9998951 C77.2623776,43.9998951 78.4914365,42.9514433 78.4914365,41.4389805 L78.4914365,2.56955869 C78.4999082,1.07421619 77.2710217,0 75.9303495,0 Z M75.7499148,41.0608228 L72.312423,38.5858455 L70.7053788,37.425692 L69.0983346,38.5858455 L65.7811885,40.9748855 C65.5405809,41.1467601 65.2655648,41.2326974 64.9819885,41.2326974 C64.6897681,41.2326974 64.414752,41.1382 64.1741443,40.9663254 L60.8569983,38.5858455 L59.2499541,37.425692 L57.6429099,38.5858455 L54.3257639,40.9748855 C54.0851562,41.1467601 53.8101401,41.2326974 53.5179197,41.2326974 C53.2257833,41.2326974 52.9507672,41.1382 52.7101595,40.9663254 L49.3929296,38.5858455 L47.7858854,37.425692 L46.1874852,38.5858455 L42.7499934,41.1124355 L42.7499934,2.93907228 L46.1874852,5.41404959 L47.7945295,6.57420308 L49.4015737,5.41404959 L52.7187197,3.02500957 C52.9593273,2.85313498 53.2343434,2.76719769 53.5179197,2.76719769 C53.8101401,2.76719769 54.0851562,2.86169514 54.3257639,3.03356973 L57.6429099,5.41404959 L59.2499541,6.57420308 L60.8569983,5.41404959 L64.1741443,3.02500957 C64.414752,2.85313498 64.6897681,2.76719769 64.9819885,2.76719769 C65.2741249,2.76719769 65.5491411,2.86169514 65.7897487,3.03356973 L69.1069786,5.41404959 L70.7140228,6.57420308 L72.312423,5.41404959 L75.7499148,2.93907228 L75.7499148,41.0608228 Z M69.5624295,12.3749705 C69.9405872,12.3749705 70.2499279,12.6843112 70.2499279,13.0624689 L70.2499279,14.4374656 C70.2499279,14.8156232 69.9405872,15.1249639 69.5624295,15.1249639 L48.9374787,15.1249639 C48.559321,15.1249639 48.2499803,14.8156232 48.2499803,14.4374656 L48.2499803,13.0624689 C48.2499803,12.6843112 48.559321,12.3749705 48.9374787,12.3749705 L69.5624295,12.3749705 Z" id="icon-receipt"></path>
                    </g>
                </g>
            </g>
        </g>
    </g>
</svg>