<?xml version="1.0" encoding="UTF-8"?>
<svg width="16px" height="12px" viewBox="0 0 16 12" version="1.1" xmlns="http://www.w3.org/2000/svg" xmlns:xlink="http://www.w3.org/1999/xlink">
    <!-- Generator: Sketch 56.3 (81716) - https://sketch.com -->
    <title>icon-logout</title>
    <desc>Created with Sketch.</desc>
    <g id="Lists-All-News" stroke="none" stroke-width="1" fill="none" fill-rule="evenodd">
        <g id="News-List" transform="translate(-83.000000, -1046.000000)" fill="#494E52" fill-rule="nonzero">
            <g id="Sidebar" transform="translate(0.000000, 61.000000)">
                <g id="Sidebar/White" transform="translate(0.000000, 30.000000)">
                    <g id="list" transform="translate(0.000000, 947.000000)">
                        <g id="icon-logout" transform="translate(83.000000, 8.000000)">
                            <path d="M2.99985266,0 L5.62472375,0 C5.83095141,0 5.99970533,0.168753919 5.99970533,0.374981583 L5.99970533,1.12494475 C5.99970533,1.33117241 5.83095141,1.49992633 5.62472375,1.49992633 L2.99985266,1.49992633 C2.17176834,1.49992633 1.49992633,2.17176834 1.49992633,2.99985266 L1.49992633,8.99955799 C1.49992633,9.82764232 2.17176834,10.4994843 2.99985266,10.4994843 L5.62472375,10.4994843 C5.83095141,10.4994843 5.99970533,10.6682382 5.99970533,10.8744659 L5.99970533,11.6244291 C5.99970533,11.8306567 5.83095141,11.9994107 5.62472375,11.9994107 L2.99985266,11.9994107 C1.34368401,11.9994107 0,10.6557267 0,8.99955799 L0,2.99985266 C0,1.34368401 1.34368401,0 2.99985266,0 Z M10.2213608,0.609345072 C10.3682347,0.462471183 10.6057413,0.462471183 10.7525847,0.606232432 L15.8898446,5.73098073 C16.0367185,5.87782411 16.0367185,6.11533075 15.8898446,6.26220464 L10.7525847,11.3869529 C10.6057413,11.5337963 10.3682347,11.5337963 10.2213608,11.3869529 L9.60890307,10.7744647 C9.46202918,10.6275908 9.46517233,10.3870021 9.61515886,10.2401282 L13.1493481,6.81216543 L5.37473602,6.81216543 C5.16850836,6.81216543 4.99975444,6.64341151 4.99975444,6.43718384 L4.99975444,5.56222682 C4.99975444,5.35599915 5.16850836,5.18724523 5.37473602,5.18724523 L13.1493481,5.18724523 L9.61515886,1.75616985 C9.46202918,1.6124086 9.45891654,1.37181983 9.60890307,1.22180279 L10.2213608,0.609345072 Z" id="s"></path>
                        </g>
                    </g>
                </g>
            </g>
        </g>
    </g>
</svg>