<?xml version="1.0" encoding="UTF-8"?>
<svg width="25px" height="21px" viewBox="0 0 25 21" version="1.1" xmlns="http://www.w3.org/2000/svg" xmlns:xlink="http://www.w3.org/1999/xlink">
    <!-- Generator: Sketch 58 (84663) - https://sketch.com -->
    <title>icon-tshirt-active</title>
    <desc>Created with Sketch.</desc>
    <g id="Web-[WIP]" stroke="none" stroke-width="1" fill="none" fill-rule="evenodd">
        <g id="Step-4" transform="translate(-984.000000, -371.000000)" fill="#FA6400" fill-rule="nonzero">
            <g id="Content" transform="translate(261.000000, 163.000000)">
                <g id="Form" transform="translate(319.000000, 0.000000)">
                    <g id="feild-copy-2" transform="translate(61.000000, 171.000000)">
                        <g id="check-copy-9" transform="translate(320.000000, 28.000000)">
                            <path d="M47.9218156,14.226593 C48.0507139,14.613326 48.0194716,15.0234813 47.8475817,15.3945742 L45.7772742,19.5429713 C45.4022903,20.2929771 44.4882148,20.6015854 43.742138,20.2226724 L42.8241715,19.789095 C42.6171484,19.6914389 42.3788448,19.8398685 42.3788448,20.0703138 L42.3788448,27.3046791 C42.3788448,28.5156138 41.3983936,29.499994 40.19135,29.499994 L30.8163724,29.499994 C29.6093669,29.499994 28.6288776,28.5156138 28.6288776,27.3046791 L28.6288776,20.0664228 C28.6288776,19.8398685 28.3906121,19.6875098 28.183589,19.7851658 L27.2460913,20.2265634 C26.5195076,20.5898743 25.6054702,20.285157 25.2304482,19.5351893 L23.1601406,15.3867541 C22.9765778,15.0234813 22.9492265,14.613326 23.0781248,14.226593 C23.2070231,13.843789 23.48046,13.5312897 23.8437327,13.3515798 L31.5859094,9.50004172 C31.9414002,9.99221279 32.6718367,11.4648732 35.4999702,11.4648732 C38.3046434,11.4648732 39.0429381,10.0156731 39.414031,9.50004172 L47.1600986,13.3515798 C47.5233714,13.5312897 47.7929173,13.843789 47.9218156,14.226593 Z M44.2499493,18.3828483 L45.9960466,14.8750136 L39.9218423,11.8554972 C38.8945086,12.789104 37.2773097,13.3476888 35.4999702,13.3476888 C33.7226307,13.3476888 32.1054318,12.789104 31.0742071,11.8516062 L25.0000029,14.8711227 L26.7499911,18.3828483 L29.6093669,17.0312661 C30.0234131,16.8359541 30.4999821,17.1406332 30.4999821,17.597671 L30.4999821,27.3086083 C30.4999821,27.48046 30.6405915,27.6211075 30.8124814,27.6211075 L40.187459,27.6211075 C40.3593489,27.6211075 40.4999583,27.48046 40.4999583,27.3086083 L40.4999583,17.597671 C40.4999583,17.1367423 40.9765273,16.8359541 41.3905735,17.0312661 L44.2499493,18.3828483 Z" id="icon-tshirt-active"></path>
                        </g>
                    </g>
                </g>
            </g>
        </g>
    </g>
</svg>