<?xml version="1.0" encoding="UTF-8"?>
<svg width="22px" height="22px" viewBox="0 0 22 22" version="1.1" xmlns="http://www.w3.org/2000/svg" xmlns:xlink="http://www.w3.org/1999/xlink">
    <!-- Generator: Sketch 56.3 (81716) - https://sketch.com -->
    <title>icon-avatar</title>
    <desc>Created with Sketch.</desc>
    <g id="Symbols" stroke="none" stroke-width="1" fill="none" fill-rule="evenodd">
        <g id="Header/Admin" transform="translate(-1352.000000, -20.000000)" fill="#3E4348" fill-rule="nonzero">
            <g id="Avatar">
                <g transform="translate(1352.000000, 19.000000)">
                    <path d="M10.6562246,1.09379508 C16.5429293,1.09379508 21.3124492,5.86331495 21.3124492,11.7500197 C21.3124492,17.6367244 16.5429293,22.4062443 10.6562246,22.4062443 C4.76951988,22.4062443 0,17.6367244 0,11.7500197 C0,5.86331495 4.76951988,1.09379508 10.6562246,1.09379508 Z M10.6562246,5.21878524 C8.56796511,5.21878524 6.87498361,6.91176674 6.87498361,9.00002623 C6.87498361,11.0882857 8.56796511,12.7812672 10.6562246,12.7812672 C12.7444841,12.7812672 14.4374656,11.0882857 14.4374656,9.00002623 C14.4374656,6.91176674 12.7444841,5.21878524 10.6562246,5.21878524 Z M10.6562246,20 C13.1784926,20 15.4386267,18.8570508 16.9511315,17.0695298 C16.1433293,15.5484649 14.5620914,14.5000131 12.7187197,14.5000131 C12.6155781,14.5000131 12.5124786,14.5172174 12.4136591,14.5472618 C11.8593467,14.7277386 11.2706679,14.8437623 10.6562246,14.8437623 C10.0417813,14.8437623 9.45738254,14.7277386 8.89879012,14.5472618 C8.79997063,14.5172174 8.69687105,14.5000131 8.59372951,14.5000131 C6.75035775,14.5000131 5.16911991,15.5484649 4.36131773,17.0695298 C5.87382251,18.8570508 8.13395659,20 10.6562246,20 Z" id="icon-avatar"></path>
                </g>
            </g>
        </g>
    </g>
</svg>