<?xml version="1.0" encoding="UTF-8"?>
<svg width="13px" height="13px" viewBox="0 0 13 13" version="1.1" xmlns="http://www.w3.org/2000/svg" xmlns:xlink="http://www.w3.org/1999/xlink">
    <!-- Generator: Sketch 56.3 (81716) - https://sketch.com -->
    <title>icon-create-news</title>
    <desc>Created with Sketch.</desc>
    <g id="Symbols" stroke="none" stroke-width="1" fill="none" fill-rule="evenodd">
        <g id="btn-add-product" transform="translate(-13.000000, -11.000000)" fill="#FFFFFF" fill-rule="nonzero">
            <g id="icon-create-news">
                <path d="M24.7499729,16.4375156 C25.2331337,16.4375156 25.6249708,16.8293528 25.6249708,17.3125136 L25.6249708,18.1875115 C25.6249708,18.6706722 25.2331337,19.0625094 24.7499729,19.0625094 L20.8124823,19.0625094 L20.8124823,23 C20.8124823,23.4831608 20.4206451,23.8749979 19.9374844,23.8749979 L19.0624864,23.8749979 C18.5793257,23.8749979 18.1874885,23.4831608 18.1874885,23 L18.1874885,19.0625094 L14.2499979,19.0625094 C13.7668371,19.0625094 13.375,18.6706722 13.375,18.1875115 L13.375,17.3125136 C13.375,16.8293528 13.7668371,16.4375156 14.2499979,16.4375156 L18.1874885,16.4375156 L18.1874885,12.500025 C18.1874885,12.0168643 18.5793257,11.6250271 19.0624864,11.6250271 L19.9374844,11.6250271 C20.4206451,11.6250271 20.8124823,12.0168643 20.8124823,12.500025 L20.8124823,16.4375156 L24.7499729,16.4375156 Z"></path>
            </g>
        </g>
    </g>
</svg>